<?xml version="1.0" standalone="no"?><!DOCTYPE svg PUBLIC "-//W3C//DTD SVG 1.1//EN" "http://www.w3.org/Graphics/SVG/1.1/DTD/svg11.dtd"><svg t="1713876782242" class="icon" viewBox="0 0 1024 1024" version="1.1" xmlns="http://www.w3.org/2000/svg" p-id="7206" xmlns:xlink="http://www.w3.org/1999/xlink" width="250" height="250"><path d="M895.999 862.616V928c0 17.674-14.326 32-31.999 32h-96c-17.673 0-32-14.326-32-32v-32H288v32c0 17.674-14.326 32-32 32h-96c-17.674 0-32-14.326-32-32v-65.384c-38.861-30.46-64-78.951-64-133.572v-50.087C64 623.496 89.921 574.362 129.803 544H128c22.667-193.333 159.999-224 159.999-224H592v64H304s-95.999 16.001-112 160h640a318.274 318.274 0 0 0-2.191-16h63.993a411.137 411.137 0 0 1 2.199 16h-1.804C934.078 574.362 960 623.496 960 678.955v50.087c0 54.622-25.14 103.114-64.001 133.574z m-688-222.617c-44.182 0-80 35.818-80 79.999 0 44.184 35.817 80.001 80 80.001C252.182 800 288 764.182 288 719.998c0-44.181-35.818-79.999-80.001-79.999zM648 656H376c-13.255 0-24 10.745-24 24s10.745 24 24 24h272c13.255 0 24-10.745 24-24s-10.745-24-24-24z m0 80H376c-13.255 0-24 10.745-24 24s10.745 24 24 24h272c13.255 0 24-10.745 24-24s-10.745-24-24-24z m167.999-96.001c-44.182 0-80 35.818-80 79.999 0 44.184 35.817 80.001 80 80.001 44.182 0 80-35.818 80-80.001 0-44.181-35.817-79.999-80-79.999zM864 496H688c-35.346 0-64-28.654-64-64V128c0-35.346 28.654-64 64-64h176c35.346 0 64 28.654 64 64v304c0 35.346-28.654 64-64 64z m-88-16c22.091 0 40-17.909 40-40s-17.909-40-40-40-40 17.909-40 40 17.909 40 40 40z m40-400h-80c-8.837 0-16 7.163-16 16s7.163 16 16 16h80c8.837 0 16-7.163 16-16s-7.163-16-16-16z m64 48H672v256h208V128zM720 368h-32v-64h32v64z m48 0h-32V224h32v144z m48 0h-32v-96h32v96z m48 0h-32v-48h32v48z" p-id="7207" fill="#ffffff"></path></svg>