<?xml version="1.0" standalone="no"?><!DOCTYPE svg PUBLIC "-//W3C//DTD SVG 1.1//EN" "http://www.w3.org/Graphics/SVG/1.1/DTD/svg11.dtd"><svg t="1713876662114" class="icon" viewBox="0 0 1024 1024" version="1.1" xmlns="http://www.w3.org/2000/svg" p-id="3818" xmlns:xlink="http://www.w3.org/1999/xlink" width="250" height="250"><path d="M124.364449 779.367397c2.580778-10.06524 9.622148-16.196891 17.903765-21.837354 30.429033-20.726044 60.603263-41.826618 90.801029-62.891376 2.828418-1.972934 4.897543-2.496867 8.125051-0.49835 6.983041 4.324492 14.880919 5.427616 23.057135 5.425569 176.171372-0.048095 352.34172-0.023536 528.513092-0.110517 4.465708-0.002047 8.103562 1.006933 11.802814 3.599991 26.102495 18.294668 52.229548 36.558637 78.611405 54.445006 8.300037 5.627161 15.287171 11.815093 17.875113 21.868053 0 2.729158 0 5.457292 0 8.18645-0.327458 0.76748-0.723477 1.51347-0.974188 2.305509-5.942339 18.780739-23.279193 24.755824-39.503712 13.529131-40.056298-27.719318-80.081896-55.480592-120.128985-83.214237-1.478677-1.023306-3.041266-1.924839-5.541203-3.496637 0 9.422603 0.028653 17.877159-0.007163 26.331715-0.053212 12.600993-1.341554 25.341155 0.112564 37.763069 1.363044 11.641131 0.261966 22.24463-4.320399 32.828686-24.469298 56.519248-48.935526 113.039519-73.213465 169.640632-5.776563 13.467733-14.081717 23.978111-28.623921 28.415167-2.387373 0-4.77577 0-7.163143 0-14.213723-6.54609-28.381397-13.19451-42.659589-19.596314-7.41897-3.326768-11.835559-8.918114-13.94357-16.579607-3.047406-11.078313-0.912789-21.574365 3.52222-31.834033 19.590174-45.310975 39.167045-90.627067 58.737776-135.947252 0.718361-1.662873 1.316995-3.377934 2.14792-5.526877-79.673597 0-158.676929 0-238.423181 0 1.056052 2.602268 1.885953 4.764514 2.803859 6.889921 19.091824 44.228317 38.240953 88.431052 57.226353 132.705418 2.197038 5.122671 4.015454 10.528797 5.101181 15.984043 3.412726 17.143449-2.610454 28.66076-18.279319 35.997865-12.760628 5.975085-25.527396 11.938913-38.291095 17.906835-2.729158 0-5.457292 0-8.18645 0-12.71458-4.235464-21.391193-12.792351-26.657126-24.970718-25.384134-58.718333-50.764174-117.438713-76.138074-176.162162-3.602038-8.337899-4.591575-17.038048-3.477194-26.012444 0.313132-2.521426 0.899486-5.0449 0.892323-7.566326-0.042979-16.35755-0.217964-32.715099-0.342808-49.073672-0.017396-2.300392-0.002047-4.600785-0.002047-8.074909-2.733251 1.823532-4.273327 2.817162-5.77861 3.859911-37.807071 26.180266-75.613118 52.360532-113.412003 78.55103-18.235316 12.635785-34.213219 7.509021-41.48995-13.325493-0.162706-0.465604-0.448208-0.88823-0.676405-1.330298C124.364449 784.825712 124.364449 782.096555 124.364449 779.367397z" p-id="3819" fill="#ffffff"></path><path d="M522.43056 12.911054c4.480035 0.8913 9.010211 1.583055 13.430894 2.704598 41.86141 10.621918 69.223594 37.948287 83.123162 77.492932 19.60143 55.768141 10.520611 107.023502-30.101575 151.475923-1.213641 1.327228-1.785669 4.417613-1.12666 6.079462 3.194762 8.05649 6.599302 16.068977 10.589173 23.75503 1.777483 3.425006 1.402953 5.114484-1.279133 7.649214-67.531046 63.847144-134.979204 127.783315-202.436572 191.709253-34.904974 33.07735-69.797669 66.165955-104.70469 99.241258-1.311879 1.243317-2.709715 2.39556-5.209652 4.595668 0-6.670933-0.01535-12.024871 0.002047-17.379832 0.170892-52.349275 0.288572-104.69855 0.571005-157.046802 0.058328-10.906397 0.279363-21.849634 1.215688-32.706913 2.01182-23.326265 14.08274-40.501436 33.902134-52.340065 20.522406-12.259208 43.186591-17.893532 66.775846-18.334577 13.331633-0.248663 23.078625-5.238304 29.217439-16.132422 6.983041-12.394285 12.583596-25.577538 18.503423-38.546921 0.617054-1.350764-0.083911-4.081968-1.158383-5.311982-26.170033-29.948079-37.60241-65.140603-34.787294-104.338347 3.462868-48.214095 24.150026-86.829578 67.716264-110.903879 10.665921-5.894244 22.282492-9.290597 34.444487-10.66899 1.325182-0.150426 2.611477-0.653893 3.91517-0.99363C510.833431 12.911054 516.632507 12.911054 522.43056 12.911054z" p-id="3820" fill="#ffffff"></path><path d="M735.832881 615.455233c-123.408681 0-245.784846 0-369.013425 0 1.399883-1.576915 2.260483-2.705622 3.27765-3.669576 104.576777-99.135858 209.166857-198.258413 313.749774-297.388131 1.734504-1.64343 3.055592-3.221368 6.081509-1.796926 23.658839 11.139711 40.281425 27.936259 43.806715 54.910611 1.189082 9.096169 1.329275 18.371416 1.37123 27.567869 0.322341 70.255087 0.503467 140.510174 0.726547 210.765261C735.841068 608.893794 735.832881 611.942223 735.832881 615.455233z" p-id="3821" fill="#ffffff"></path></svg>