<?xml version="1.0" standalone="no"?><!DOCTYPE svg PUBLIC "-//W3C//DTD SVG 1.1//EN" "http://www.w3.org/Graphics/SVG/1.1/DTD/svg11.dtd"><svg t="1714048968886" class="icon" viewBox="0 0 1024 1024" version="1.1" xmlns="http://www.w3.org/2000/svg" p-id="2974" xmlns:xlink="http://www.w3.org/1999/xlink" width="250" height="250"><path d="M969.4 317.5c-25.2-59.5-61.2-113-107.1-158.8s-99.2-82-158.8-107.1C641.9 25.5 576.4 12.3 509 12.3S376.1 25.5 314.5 51.6c-59.5 25.2-113 61.2-158.8 107.1s-82 99.2-107.1 158.8C22.5 379.1 9.3 444.6 9.3 512s13.2 132.9 39.3 194.5c25.2 59.5 61.2 113 107.1 158.8s99.3 81.9 158.8 107.1c61.6 26.1 127.1 39.3 194.5 39.3s132.9-13.2 194.5-39.3c59.5-25.2 113-61.2 158.8-107.1s81.9-99.3 107.1-158.8c26.1-61.6 39.3-127.1 39.3-194.5s-13.2-132.9-39.3-194.5zM509 955.7C263.9 955.7 65.3 757.1 65.3 512S263.9 68.3 509 68.3 952.7 266.9 952.7 512 754.1 955.7 509 955.7z" p-id="2975" fill="#ffffff"></path><path d="M790.2 342.7c-22.1 16.7-50.7 25.9-80.4 25.9-29.5 0-57.9-9.1-80-25.6-12.4-9.3-29.9-6.8-39.2 5.6-9.3 12.4-6.8 29.9 5.6 39.2 31.7 23.8 72 36.8 113.6 36.8 41.8 0 82.4-13.2 114.1-37.2 12.3-9.3 14.8-26.9 5.5-39.2-9.3-12.4-26.9-14.9-39.2-5.5zM412.7 348.1c-9.3-12.3-26.9-14.8-39.2-5.5-22.1 16.7-50.7 25.9-80.4 25.9-29.5 0-57.9-9.1-80-25.6-12.4-9.3-29.9-6.8-39.2 5.6-9.3 12.4-6.8 29.9 5.6 39.2 31.7 23.8 72 36.8 113.6 36.8 41.8 0 82.4-13.2 114.1-37.2 12.4-9.3 14.9-26.8 5.5-39.2zM505.3 534.9c-31.5 0-61.4 17.8-82.2 48.9-18.8 28.1-29.2 64.9-29.2 103.7s10.4 75.6 29.2 103.7c20.8 31.1 50.8 48.9 82.2 48.9 31.5 0 61.4-17.8 82.2-48.9 18.8-28.1 29.2-64.9 29.2-103.7s-10.4-75.6-29.2-103.7c-20.7-31.1-50.7-48.9-82.2-48.9z m0 249.2c-26.2 0-55.4-39.7-55.4-96.6 0-56.9 29.2-96.6 55.4-96.6s55.4 39.7 55.4 96.6c0 56.9-29.2 96.6-55.4 96.6z" p-id="2976" fill="#ffffff"></path></svg>