<?xml version="1.0" standalone="no"?><!DOCTYPE svg PUBLIC "-//W3C//DTD SVG 1.1//EN" "http://www.w3.org/Graphics/SVG/1.1/DTD/svg11.dtd"><svg t="1714049423150" class="icon" viewBox="0 0 1024 1024" version="1.1" xmlns="http://www.w3.org/2000/svg" p-id="5156" xmlns:xlink="http://www.w3.org/1999/xlink" width="250" height="250"><path d="M907.249 617.358c-35.168 35.956-90.117 72.661-132.977 85.395 0 0-16.615 6.888-25.277-3.371-12.892-15.27 1.099-31.461 1.099-31.461S815.3 619.98 819.33 552.188c4.03-67.792-75.097-130.34-87.919-144.947-12.821-14.607-61.177-62.548-59.345-139.328 1.832-76.781 68.503-141.201 129.68-168.543 0 0 17.481-8.321 30.772 1.124 14.211 10.099 4.396 31.461 4.396 31.461s-45.058 63.672-38.464 116.856c6.594 53.184 69.602 76.406 94.513 103.373C917.872 379.151 960 426.152 960 479.153c0 48.316-19.879 104.595-52.751 138.205zM736 928H112c-26.51 0-48-21.49-48-48v-96c0-26.51 21.49-48 48-48h624v192z m128-176v160c0 8.837-7.163 16-16 16h-64V736h64c8.837 0 16 7.163 16 16z" p-id="5157" fill="#ffffff"></path></svg>