<?xml version="1.0" standalone="no"?><!DOCTYPE svg PUBLIC "-//W3C//DTD SVG 1.1//EN" "http://www.w3.org/Graphics/SVG/1.1/DTD/svg11.dtd"><svg t="1714049543953" class="icon" viewBox="0 0 1024 1024" version="1.1" xmlns="http://www.w3.org/2000/svg" p-id="7326" xmlns:xlink="http://www.w3.org/1999/xlink" width="250" height="250"><path d="M320 160c-17.6 0-32 14.4-32 32s14.4 32 32 32h128c17.6 0 32-14.4 32-32s-14.4-32-32-32H320z" p-id="7327" fill="#ffffff"></path><path d="M412.936 854.293A47.778 47.778 0 0 1 384 864c-26.51 0-48-21.49-48-48s21.49-48 48-48c0.476 0 0.946 0.022 1.419 0.036 0.951-7.045 2.73-13.858 5.581-20.036 6-13 14.647-25.367 24-34 13-12 28-19 38-23l-10.934-19H128V192c0-35.2 28.8-64 64-64h384c35.2 0 64 28.8 64 64v205.331c20.136-7.432 44.238-5.442 64.5 4.907V192c0-70.4-57.6-128-128-128h-385c-70.4 0-128 57.6-128 128v640c0 70.4 57.6 128 128 128h385c10.749 0 21.197-1.349 31.189-3.875l-171.284-84.172c-8.245-4.055-16.338-10.342-23.469-17.66zM919.202 835.503l-0.135 0.078-0.01 0.006z" p-id="7328" fill="#ffffff"></path><path d="M936.091 637.94L827.578 449.99c-21.607-37.425-66.826-52.243-101.214-32.389-6.39 3.69-12.133 8.502-16.95 14.085-22.802-14.958-51.339-16.796-73.955-3.739-11.344 6.549-20.409 16.546-26.443 28.813-20.014-7.973-41.902-6.92-60.213 3.652-6.962 4.019-13.016 9.289-18.021 15.541l-43.777-75.824c-21.646-37.493-69.197-50.873-106.028-29.609s-49.018 69.134-27.371 106.627l131.98 228.594c-13.616 0.292-27.172 4.008-39.305 11.013-13.894 7.931-25.09 19.718-32.207 33.92-9.536 18.96-11.14 40.722-4.422 60.486 6.713 19.764 21.141 35.929 40.122 44.954l169.651 80.612c0.977 0.371 1.997 0.809 2.906 1.219l3.138 1.46a34.407 34.407 0 0 1 4.526 1.872c4.553 2.412 5.88 3.051 8.151 4.167 33.232 16.602 56.33 19.805 83.398 4.177l197.523-114.04c45.867-26.495 56.395-130.114 17.024-197.641z m-59.692 148.606l-181.865 105c-11.167 6.448-30.174-3.146-57.507-17.605l-154.004-72.744c-4.098-1.098-13.562-9.491-10.268-21.785 1.464-5.464 8.624-13.062 22.019-13.868l100.478 2.033-184.5-319.563c-8.5-14.722-1.206-20.088 2.258-22.088 1.732-1 11.758-5.634 20.258 9.088l70.991 122.96-0.006 0.004 56 96.992 55.424-32-46.486-80.514 0.003-0.012c-3.5-6.062-5.902-16.222 2.758-21.222 7.64-4.411 14.835-1.899 22.651 11.252l52.956 91.72 55.424-32-45.982-79.641v-0.019c-6-10.393-4.938-22.553 2.99-24.821 12.229-3.498 18.645 6.362 25.715 18.545l55.518 96.583 55.426-32-46.583-80.682 0.107-0.242c-3.5-6.062-1.897-12.807 4.026-15.026 5.697-2.134 13.393-0.803 19.611 9.967l100.636 174.306c30.512 50.849 27.933 112.382 1.952 127.382z" p-id="7329" fill="#ffffff"></path></svg>