<?xml version="1.0" standalone="no"?><!DOCTYPE svg PUBLIC "-//W3C//DTD SVG 1.1//EN" "http://www.w3.org/Graphics/SVG/1.1/DTD/svg11.dtd"><svg t="1713876745804" class="icon" viewBox="0 0 1024 1024" version="1.1" xmlns="http://www.w3.org/2000/svg" p-id="4936" xmlns:xlink="http://www.w3.org/1999/xlink" width="250" height="250"><path d="M464.951351 488.475676c59.502703 0 112.086486-29.059459 145.297298-73.340541l-26.291892-11.07027 24.908108-59.502703 34.594594-16.605405c0-5.535135 1.383784-12.454054 1.383784-17.989189l-19.372973-6.918919 13.837838-38.745946c-19.372973-77.491892-89.945946-134.227027-174.356757-134.227027-99.632432 0-179.891892 80.259459-179.891892 179.891892 0 98.248649 80.259459 178.508108 179.891892 178.508108zM949.275676 236.627027l-159.135135-23.524324-5.535136 47.048648 101.016217 15.221622-116.237838 95.481081-6.918919 52.583784 159.135135 23.524324 5.535135-47.048648-101.016216-15.221622 116.237838-95.481081z" fill="#ffffff" p-id="4937"></path><path d="M624.086486 358.4l-12.454054 34.594595 101.016217 38.745946 11.07027-30.443244-63.654054-24.908108 89.945946-44.281081 12.454054-33.210811-101.016216-40.129729-11.070271 30.443243 63.654054 24.908108zM604.713514 500.92973c-38.745946 26.291892-85.794595 41.513514-136.994595 41.513513s-99.632432-15.221622-138.378378-42.897297c-27.675676 11.07027-53.967568 24.908108-77.491892 41.513513L359.783784 697.427027c30.443243-13.837838 65.037838-22.140541 101.016216-22.140541 109.318919 0 203.416216 71.956757 233.859459 171.58919h145.297298c-1.383784-156.367568-98.248649-290.594595-235.243243-345.945946zM322.421622 716.8l-103.783784-150.832432c-77.491892 67.805405-127.308108 168.821622-127.308108 280.908108h135.610811c16.605405-53.967568 49.816216-99.632432 95.481081-130.075676z" fill="#ffffff" p-id="4938"></path><path d="M458.032432 725.102703c-106.551351 0-193.72973 87.178378-193.729729 193.729729h387.459459c0-106.551351-87.178378-193.72973-193.72973-193.729729z" fill="#ffffff" p-id="4939"></path></svg>